<svg preserveAspectRatio="none" xmlns="http://www.w3.org/2000/svg" width="572.542" height="576.892" viewBox="0 0 572.542 576.892"><path d="M405.124-52.766c48.912-3.207,92.613,37.286,84.594,82.59s-67.355,95.82-78.981,150.746c-11.226,55.327,25.258,115.064,24.456,175.6-.8,60.94-38.889,123.083-94.216,150.746s-128.295,20.848-178.811-14.834C111.249,456.4,82.382,391.454,36.677,340.136c-45.3-51.318-107.447-88.6-117.069-135.912C-90.414,157.317-47.917,100.787,1.4,70.317,51.111,40.248,107.64,36.238,149.737,35.838S219.1,39.045,259.99,17.8C300.884-3.854,355.81-49.96,405.124-52.766Z" transform="translate(81.868 52.945)" fill="#fddfbb"/></svg>