<svg preserveAspectRatio="none" xmlns="http://www.w3.org/2000/svg" width="606.546" height="533.449" viewBox="0 0 606.546 533.449"><path d="M-33.2-261.423c38.034-1.153,77.988,17.672,115.638,48.791,38.034,31.5,74.531,75.3,69.536,116.406S101.267-17.085,63.617,15.186c-37.265,32.271-66.079,58.779-99.5,91.435-33.039,32.655-70.3,71.457-118.327,89.9-47.638,18.441-106.418,16.135-137.92-17.288-31.887-33.424-36.881-97.966-57.243-148.677-20.746-50.712-56.474-87.593-51.1-121.016,5.763-33.424,52.633-63.774,86.056-91.819,33.424-28.429,53.4-54.553,79.525-60.316s58.779,8.836,93.355,5.763C-107.343-239.909-71.23-260.655-33.2-261.423Z" transform="translate(423.379 308.396) rotate(7)" fill="#fcebd7"/></svg>